<mxfile host="www.draw.io" modified="2019-10-23T13:18:29.215Z" agent="Mozilla/5.0 (Windows NT 10.0; Win64; x64; rv:69.0) Gecko/20100101 Firefox/69.0" etag="_InwmHAcV7likjpTKo_n" version="12.1.3" type="github" pages="1">
  <diagram id="66luMfSY360YQ58SDBbo" name="Page-1">
    <mxGraphModel dx="1408" dy="755" grid="1" gridSize="10" guides="1" tooltips="1" connect="1" arrows="1" fold="1" page="1" pageScale="1" pageWidth="1100" pageHeight="850" math="0" shadow="0">
      <root>
        <mxCell id="0"/>
        <mxCell id="1" parent="0"/>
        <mxCell id="S2djndltIK2n1eHrcPjO-1" value="&lt;p style=&quot;margin: 0px ; margin-top: 4px ; text-align: center&quot;&gt;&lt;i&gt;&amp;lt;&amp;lt;abstract&amp;gt;&amp;gt;&lt;/i&gt;&lt;br&gt;&lt;b&gt;User&lt;/b&gt;&lt;/p&gt;&lt;hr size=&quot;1&quot;&gt;&lt;p style=&quot;margin: 0px ; margin-left: 4px&quot;&gt;- _name:string&lt;br&gt;&lt;/p&gt;&lt;hr size=&quot;1&quot;&gt;&lt;p style=&quot;margin: 0px ; margin-left: 4px&quot;&gt;+ User(name:string)&lt;br&gt;&lt;/p&gt;" style="verticalAlign=top;align=left;overflow=fill;fontSize=12;fontFamily=Helvetica;html=1;" vertex="1" parent="1">
          <mxGeometry x="350" y="80" width="190" height="110" as="geometry"/>
        </mxCell>
        <mxCell id="S2djndltIK2n1eHrcPjO-2" value="Student" style="swimlane;fontStyle=1;align=center;verticalAlign=top;childLayout=stackLayout;horizontal=1;startSize=26;horizontalStack=0;resizeParent=1;resizeParentMax=0;resizeLast=0;collapsible=1;marginBottom=0;" vertex="1" parent="1">
          <mxGeometry x="110" y="266" width="270" height="188" as="geometry"/>
        </mxCell>
        <mxCell id="S2djndltIK2n1eHrcPjO-3" value="- _answer:List&lt;int&gt;&#xa;- _result:int" style="text;strokeColor=none;fillColor=none;align=left;verticalAlign=top;spacingLeft=4;spacingRight=4;overflow=hidden;rotatable=0;points=[[0,0.5],[1,0.5]];portConstraint=eastwest;" vertex="1" parent="S2djndltIK2n1eHrcPjO-2">
          <mxGeometry y="26" width="270" height="54" as="geometry"/>
        </mxCell>
        <mxCell id="S2djndltIK2n1eHrcPjO-4" value="" style="line;strokeWidth=1;fillColor=none;align=left;verticalAlign=middle;spacingTop=-1;spacingLeft=3;spacingRight=3;rotatable=0;labelPosition=right;points=[];portConstraint=eastwest;" vertex="1" parent="S2djndltIK2n1eHrcPjO-2">
          <mxGeometry y="80" width="270" height="8" as="geometry"/>
        </mxCell>
        <mxCell id="S2djndltIK2n1eHrcPjO-5" value="+ Student(name:string)&#xa;+ DoQuestions(mcq:MCQ)&#xa;+CheckAnswers(answer:MCQ)&#xa;+ Answers:int &lt;&lt;readonly property&gt;&gt;&#xa;+ Result: int &lt;&lt;readonly property&gt;&gt;&#xa;&#xa;" style="text;strokeColor=none;fillColor=none;align=left;verticalAlign=top;spacingLeft=4;spacingRight=4;overflow=hidden;rotatable=0;points=[[0,0.5],[1,0.5]];portConstraint=eastwest;" vertex="1" parent="S2djndltIK2n1eHrcPjO-2">
          <mxGeometry y="88" width="270" height="100" as="geometry"/>
        </mxCell>
        <mxCell id="S2djndltIK2n1eHrcPjO-10" value="Teacher" style="swimlane;fontStyle=1;align=center;verticalAlign=top;childLayout=stackLayout;horizontal=1;startSize=26;horizontalStack=0;resizeParent=1;resizeParentMax=0;resizeLast=0;collapsible=1;marginBottom=0;" vertex="1" parent="1">
          <mxGeometry x="550" y="290" width="490" height="180" as="geometry"/>
        </mxCell>
        <mxCell id="S2djndltIK2n1eHrcPjO-11" value="-_questionPool:List&lt;Questions&gt;" style="text;strokeColor=none;fillColor=none;align=left;verticalAlign=top;spacingLeft=4;spacingRight=4;overflow=hidden;rotatable=0;points=[[0,0.5],[1,0.5]];portConstraint=eastwest;" vertex="1" parent="S2djndltIK2n1eHrcPjO-10">
          <mxGeometry y="26" width="490" height="26" as="geometry"/>
        </mxCell>
        <mxCell id="S2djndltIK2n1eHrcPjO-12" value="" style="line;strokeWidth=1;fillColor=none;align=left;verticalAlign=middle;spacingTop=-1;spacingLeft=3;spacingRight=3;rotatable=0;labelPosition=right;points=[];portConstraint=eastwest;" vertex="1" parent="S2djndltIK2n1eHrcPjO-10">
          <mxGeometry y="52" width="490" height="8" as="geometry"/>
        </mxCell>
        <mxCell id="S2djndltIK2n1eHrcPjO-13" value="+ Teacher(name)&#xa;+ AddToQuestionPool(question:string, a:string, b:string, c:string, d:string, answer:string)&#xa;+ CreateMCQSet(mcq:MCQ)&#xa;" style="text;strokeColor=none;fillColor=none;align=left;verticalAlign=top;spacingLeft=4;spacingRight=4;overflow=hidden;rotatable=0;points=[[0,0.5],[1,0.5]];portConstraint=eastwest;" vertex="1" parent="S2djndltIK2n1eHrcPjO-10">
          <mxGeometry y="60" width="490" height="120" as="geometry"/>
        </mxCell>
        <mxCell id="S2djndltIK2n1eHrcPjO-14" value="MCQSet" style="swimlane;fontStyle=1;align=center;verticalAlign=top;childLayout=stackLayout;horizontal=1;startSize=26;horizontalStack=0;resizeParent=1;resizeParentMax=0;resizeLast=0;collapsible=1;marginBottom=0;" vertex="1" parent="1">
          <mxGeometry x="100" y="610" width="250" height="140" as="geometry"/>
        </mxCell>
        <mxCell id="S2djndltIK2n1eHrcPjO-15" value="-_questions: List&lt;Questions&gt;" style="text;strokeColor=none;fillColor=none;align=left;verticalAlign=top;spacingLeft=4;spacingRight=4;overflow=hidden;rotatable=0;points=[[0,0.5],[1,0.5]];portConstraint=eastwest;" vertex="1" parent="S2djndltIK2n1eHrcPjO-14">
          <mxGeometry y="26" width="250" height="26" as="geometry"/>
        </mxCell>
        <mxCell id="S2djndltIK2n1eHrcPjO-16" value="" style="line;strokeWidth=1;fillColor=none;align=left;verticalAlign=middle;spacingTop=-1;spacingLeft=3;spacingRight=3;rotatable=0;labelPosition=right;points=[];portConstraint=eastwest;" vertex="1" parent="S2djndltIK2n1eHrcPjO-14">
          <mxGeometry y="52" width="250" height="8" as="geometry"/>
        </mxCell>
        <mxCell id="S2djndltIK2n1eHrcPjO-17" value="+MCQSet()&#xa;+DisplayQuestions()+Questions:List&lt;Questions&gt; &lt;&lt;property&gt;&gt;&#xa;" style="text;strokeColor=none;fillColor=none;align=left;verticalAlign=top;spacingLeft=4;spacingRight=4;overflow=hidden;rotatable=0;points=[[0,0.5],[1,0.5]];portConstraint=eastwest;" vertex="1" parent="S2djndltIK2n1eHrcPjO-14">
          <mxGeometry y="60" width="250" height="80" as="geometry"/>
        </mxCell>
        <mxCell id="S2djndltIK2n1eHrcPjO-18" value="Questions" style="swimlane;fontStyle=1;align=center;verticalAlign=top;childLayout=stackLayout;horizontal=1;startSize=26;horizontalStack=0;resizeParent=1;resizeParentMax=0;resizeLast=0;collapsible=1;marginBottom=0;" vertex="1" parent="1">
          <mxGeometry x="700" y="560" width="250" height="280" as="geometry"/>
        </mxCell>
        <mxCell id="S2djndltIK2n1eHrcPjO-19" value="- _fullquestion: string&#xa;-_a:string&#xa;-_b:string&#xa;-_c:string&#xa;-_d:string&#xa;-_answer:string&#xa;" style="text;strokeColor=none;fillColor=none;align=left;verticalAlign=top;spacingLeft=4;spacingRight=4;overflow=hidden;rotatable=0;points=[[0,0.5],[1,0.5]];portConstraint=eastwest;" vertex="1" parent="S2djndltIK2n1eHrcPjO-18">
          <mxGeometry y="26" width="250" height="104" as="geometry"/>
        </mxCell>
        <mxCell id="S2djndltIK2n1eHrcPjO-20" value="" style="line;strokeWidth=1;fillColor=none;align=left;verticalAlign=middle;spacingTop=-1;spacingLeft=3;spacingRight=3;rotatable=0;labelPosition=right;points=[];portConstraint=eastwest;" vertex="1" parent="S2djndltIK2n1eHrcPjO-18">
          <mxGeometry y="130" width="250" height="8" as="geometry"/>
        </mxCell>
        <mxCell id="S2djndltIK2n1eHrcPjO-21" value="+ Questions(question:string, a:string, &#xa;b:string, c:string, d:string, answer:string)&#xa;+ FullQuestion:string &lt;&lt;readonly property&gt;&gt;&#xa;+ A:string &lt;&lt;readonly property&gt;&gt;&#xa;+ B:string &lt;&lt;readonly property&gt;&gt;&#xa;+ C:string &lt;&lt;readonly property&gt;&gt;&#xa;+ D:string &lt;&lt;readonly property&gt;&gt;&#xa;+ Answer: string &lt;&lt;readonly property&gt;&gt;&#xa;" style="text;strokeColor=none;fillColor=none;align=left;verticalAlign=top;spacingLeft=4;spacingRight=4;overflow=hidden;rotatable=0;points=[[0,0.5],[1,0.5]];portConstraint=eastwest;" vertex="1" parent="S2djndltIK2n1eHrcPjO-18">
          <mxGeometry y="138" width="250" height="142" as="geometry"/>
        </mxCell>
        <mxCell id="S2djndltIK2n1eHrcPjO-22" value="" style="endArrow=block;endSize=16;endFill=0;html=1;exitX=0.5;exitY=0;exitDx=0;exitDy=0;" edge="1" parent="1" source="S2djndltIK2n1eHrcPjO-2" target="S2djndltIK2n1eHrcPjO-1">
          <mxGeometry width="160" relative="1" as="geometry">
            <mxPoint x="145" y="220" as="sourcePoint"/>
            <mxPoint x="305" y="220" as="targetPoint"/>
          </mxGeometry>
        </mxCell>
        <mxCell id="S2djndltIK2n1eHrcPjO-23" value="" style="endArrow=block;endSize=16;endFill=0;html=1;exitX=0.5;exitY=0;exitDx=0;exitDy=0;entryX=0.75;entryY=1;entryDx=0;entryDy=0;" edge="1" parent="1" source="S2djndltIK2n1eHrcPjO-10" target="S2djndltIK2n1eHrcPjO-1">
          <mxGeometry width="160" relative="1" as="geometry">
            <mxPoint x="470" y="330" as="sourcePoint"/>
            <mxPoint x="630" y="220" as="targetPoint"/>
          </mxGeometry>
        </mxCell>
        <mxCell id="S2djndltIK2n1eHrcPjO-24" value="" style="endArrow=diamondThin;endFill=0;endSize=24;html=1;entryX=-0.012;entryY=0.731;entryDx=0;entryDy=0;entryPerimeter=0;exitX=1.004;exitY=-0.012;exitDx=0;exitDy=0;exitPerimeter=0;" edge="1" parent="1" source="S2djndltIK2n1eHrcPjO-17" target="S2djndltIK2n1eHrcPjO-19">
          <mxGeometry width="160" relative="1" as="geometry">
            <mxPoint x="350" y="644" as="sourcePoint"/>
            <mxPoint x="250" y="790" as="targetPoint"/>
          </mxGeometry>
        </mxCell>
        <mxCell id="S2djndltIK2n1eHrcPjO-25" value="" style="endArrow=open;endSize=12;dashed=1;html=1;" edge="1" parent="1" source="S2djndltIK2n1eHrcPjO-13" target="S2djndltIK2n1eHrcPjO-14">
          <mxGeometry width="160" relative="1" as="geometry">
            <mxPoint x="100" y="810" as="sourcePoint"/>
            <mxPoint x="260" y="810" as="targetPoint"/>
          </mxGeometry>
        </mxCell>
        <mxCell id="S2djndltIK2n1eHrcPjO-26" value="" style="endArrow=open;endSize=12;dashed=1;html=1;entryX=0.5;entryY=0;entryDx=0;entryDy=0;exitX=0.441;exitY=1;exitDx=0;exitDy=0;exitPerimeter=0;" edge="1" parent="1" source="S2djndltIK2n1eHrcPjO-5" target="S2djndltIK2n1eHrcPjO-14">
          <mxGeometry width="160" relative="1" as="geometry">
            <mxPoint x="631.5517241379312" y="440" as="sourcePoint"/>
            <mxPoint x="346.0344827586207" y="620" as="targetPoint"/>
          </mxGeometry>
        </mxCell>
        <mxCell id="S2djndltIK2n1eHrcPjO-27" value="" style="endArrow=diamondThin;endFill=0;endSize=24;html=1;entryX=0.567;entryY=1;entryDx=0;entryDy=0;entryPerimeter=0;" edge="1" parent="1" source="S2djndltIK2n1eHrcPjO-18" target="S2djndltIK2n1eHrcPjO-13">
          <mxGeometry width="160" relative="1" as="geometry">
            <mxPoint x="640" y="530" as="sourcePoint"/>
            <mxPoint x="260" y="810" as="targetPoint"/>
          </mxGeometry>
        </mxCell>
      </root>
    </mxGraphModel>
  </diagram>
</mxfile>
